<?xml version="1.0" encoding="UTF-8" standalone="no"?>
<svg
   xmlns:dc="http://purl.org/dc/elements/1.1/"
   xmlns:cc="http://creativecommons.org/ns#"
   xmlns:rdf="http://www.w3.org/1999/02/22-rdf-syntax-ns#"
   xmlns:svg="http://www.w3.org/2000/svg"
   xmlns="http://www.w3.org/2000/svg"
   xmlns:sodipodi="http://sodipodi.sourceforge.net/DTD/sodipodi-0.dtd"
   xmlns:inkscape="http://www.inkscape.org/namespaces/inkscape"
   id="74ad5bb7-fdcd-4b2d-be88-4cebbebfa027"
   data-name="Layer 1"
   width="1057.7"
   height="784.98"
   viewBox="0 0 1057.7 784.98"
   version="1.1"
   sodipodi:docname="bicycle_2yok.svg"
   inkscape:version="0.92.4 (5da689c313, 2019-01-14)">
  <metadata
     id="metadata4139">
    <rdf:RDF>
      <cc:Work
         rdf:about="">
        <dc:format>image/svg+xml</dc:format>
        <dc:type
           rdf:resource="http://purl.org/dc/dcmitype/StillImage" />
        <dc:title>Ride a bicycle</dc:title>
      </cc:Work>
    </rdf:RDF>
  </metadata>
  <sodipodi:namedview
     pagecolor="#ffffff"
     bordercolor="#666666"
     borderopacity="1"
     objecttolerance="10"
     gridtolerance="10"
     guidetolerance="10"
     inkscape:pageopacity="0"
     inkscape:pageshadow="2"
     inkscape:window-width="1920"
     inkscape:window-height="1001"
     id="namedview4137"
     showgrid="false"
     inkscape:zoom="1.0293256"
     inkscape:cx="484.28202"
     inkscape:cy="339.14003"
     inkscape:window-x="-9"
     inkscape:window-y="-9"
     inkscape:window-maximized="1"
     inkscape:current-layer="74ad5bb7-fdcd-4b2d-be88-4cebbebfa027" />
  <defs
     id="defs3934">
    <linearGradient
       id="3bf67c77-6062-4f06-9d7e-238f26074c0d"
       x1="534.38"
       y1="800.56"
       x2="534.38"
       y2="118"
       gradientUnits="userSpaceOnUse">
      <stop
         offset="0"
         stop-color="gray"
         stop-opacity="0.25"
         id="stop3927" />
      <stop
         offset="0.54"
         stop-color="gray"
         stop-opacity="0.12"
         id="stop3929" />
      <stop
         offset="1"
         stop-color="gray"
         stop-opacity="0.1"
         id="stop3931" />
    </linearGradient>
  </defs>
  <title
     id="title3936">Ride a bicycle</title>
  <path
     d="m 168.4,737.33 c -64.83333,70.10665 -32.41667,35.05333 0,0 z"
     transform="translate(-71.15,-57.51)"
     id="path4014"
     inkscape:connector-curvature="0"
     style="opacity:0.2"
     sodipodi:nodetypes="cc" />
  <path
     d="M752.57,774.9,746.31,677l-.13-.21-6.32,2.2L710.77,763.8,664.52,731l73.69-53.41.07-.21.42-.15,4.75-3.45-77.24-43.31-18.93,20.8,3,19.5,88.8,1.58,0,2-90.48-1.62-3.4-22.11,25.89-28.45L709.81,577l.69,1.87,8.2-9,30.54,5.47,0-1.21,2,.06,0,1.51,45.36,8.12-42.33,84.65-6.17,4.47,0,.5,0,.56,97.81-34.08-11.61,91.21-83-52.87-2.92-1.64,48.94,78.89Zm-4-94.34,5.85,91.38,40.05-17.38ZM668,731l41.79,29.63,27.34-79.74Zm82.32-55.66,2.09,1.17,80.35,51.2,10.8-84.87Zm-7.1-7.2,2.51,4.05.44-.32,3-94.53L719.43,572l-8.16,9Zm-75.39-39.05,74.84,42-1.3-2.13-31.58-86.27-37.2,40.88Zm83.37-51.39-3,92.69,4.52-3.28,40.91-81.82Z"
     transform="translate(-71.15 -57.51)"
     fill="#535461"
     id="path4018" />
  <path
     d="M326.38,774.5l-6.27-97.94-.13-.21-6.32,2.2L284.58,763.4l-46.25-32.79L312,677.2l.07-.21.42-.15,4.75-3.45L240,630.08l-18.92,20.8,3,19.5L312.9,672l0,2-90.48-1.62L219,650.24l25.9-28.46,38.75-45.2.69,1.87,8.2-9L323,574.91l0-1.21,2,.06,0,1.51,45.36,8.12L328.07,668l-6.17,4.47,0,.5,0,.56,97.8-34.08-11.61,91.21-83-52.87-2.92-1.64,48.94,78.88Zm-4-94.34,5.85,91.38,40.05-17.38Zm-80.58,50.43,41.79,29.63,27.34-79.74Zm82.32-55.66,2.09,1.17,80.35,51.2,10.8-84.87Zm-7.1-7.2,2.51,4.05.44-.32,3-94.53-29.74-5.32-8.16,9ZM241.6,628.67l74.84,42-1.3-2.13-31.58-86.27-37.19,40.87ZM325,577.28,322,670l4.52-3.28,40.91-81.82Z"
     transform="translate(-71.15 -57.51)"
     fill="#535461"
     id="path4020" />
  <rect
     x="400.13"
     y="588"
     width="60"
     height="19"
     transform="translate(472.5 -187.42) rotate(44.62)"
     fill="#6c63ff"
     id="rect4022" />
  <rect
     x="400.13"
     y="588"
     width="60"
     height="19"
     transform="translate(472.5 -187.42) rotate(44.62)"
     opacity="0.1"
     id="rect4024" />
  <path
     d="M425.63,549.5S450.42,536.42,460,528a130.4,130.4,0,0,1,18.53-13.53l31.1-18.93,65-5,3,11s5,16-45,30-75,36-75,36S425.63,578.5,425.63,549.5Z"
     transform="translate(-71.15 -57.51)"
     fill="#db8b8b"
     id="path4026" />
  <path
     d="M460.28,565.37c-1.77,1.35-2.65,2.13-2.65,2.13s-32,11-32-18c0,0,1.55-.82,4-2.19a27.67,27.67,0,0,0,23.58,13.19h3.39Z"
     transform="translate(-71.15 -57.51)"
     opacity="0.1"
     id="path4028" />
  <path
     d="M576.69,507.06c-2.78,5.89-12.37,15.57-44.06,24.44-40.61,11.37-64.73,28-72.35,33.87-1.77,1.35-2.65,2.13-2.65,2.13s-32,11-32-18c0,0,1.55-.82,4-2.19,7.43-4.07,23.16-13,30.34-19.35a130,130,0,0,1,18.53-13.53l31.1-18.93,11.58-.89,53.42-4.11,3,11S578.3,503.65,576.69,507.06Z"
     transform="translate(-71.15 -57.51)"
     opacity="0.05"
     id="path4030" />
  <path
     d="M426.13,543l-26.5,17.5,77.6,65s11.4-7,5.4-15c0,0-20-17-21-41l-6-8h-3.39A27.67,27.67,0,0,1,426.13,543Z"
     transform="translate(-71.15 -57.51)"
     fill="#abb1d1"
     id="path4032" />
  <path
     d="M576.69,507.06c-16-7.73-55.06-8.56-55.06-8.56l-.42-3.89,53.42-4.11,3,11S578.3,503.65,576.69,507.06Z"
     transform="translate(-71.15 -57.51)"
     opacity="0.1"
     id="path4034" />
  <path
     d="M521.63,496.5s47,1,59,11l-6-121h-65Z"
     transform="translate(-71.15 -57.51)"
     fill="#abb1d1"
     id="path4036" />
  <path
     d="M521.63,496s47,1,59,11l-6-121h-65Z"
     transform="translate(-71.15 -57.51)"
     opacity="0.05"
     id="path4038" />
  <path
     d="M747.48,556.12a117.49,117.49,0,0,0-31.41,4.24,115.57,115.57,0,0,0-15.46,5.47,117.7,117.7,0,1,0,46.86-9.71Zm-.4,206.09a88.86,88.86,0,0,1-36.9-169.68,87.78,87.78,0,0,1,14.56-5.17,88.85,88.85,0,1,1,22.35,174.85Z"
     transform="translate(-71.15 -57.51)"
     fill="#535461"
     id="path4040" />
  <path
     d="M559.39,422.46s117.65-4,120.05,11.21-117.65,8.8-117.65,8.8S552.19,432.86,559.39,422.46Z"
     transform="translate(-71.15 -57.51)"
     fill="#535461"
     id="path4042" />
  <path
     d="M559.39,422.46s117.65-4,120.05,11.21-117.65,8.8-117.65,8.8S552.19,432.86,559.39,422.46Z"
     transform="translate(-71.15 -57.51)"
     opacity="0.05"
     id="path4044" />
  <circle
     cx="409.81"
     cy="689.1"
     fill="none"
     stroke="#c1272d"
     stroke-miterlimit="10"
     id="circle4046" />
  <rect
     x="372.19"
     y="425.78"
     width="20.81"
     height="180.88"
     fill="#6c63ff"
     id="rect4048" />
  <path
     d="M464.15,483.28v13.93c-6.92.9-14,1.47-20.81,1.69V483.28Z"
     transform="translate(-71.15 -57.51)"
     opacity="0.1"
     id="path4050" />
  <path
     d="M462.59,468.29a77.73,77.73,0,0,1-8.7-1.17c-11.28-2.16-39.72-6.69-47.37,1-9.6,9.6-6.4,26.41,19.21,28.81s69.63-4,78.44-13.61C504.17,483.28,488.24,470.26,462.59,468.29Z"
     transform="translate(-71.15 -57.51)"
     fill="#535461"
     id="path4052" />
  <polygon
     points="387.4 475.4 605.9 407.37 613.1 424.18 389 501.01 387.4 475.4"
     fill="#6c63ff"
     id="polygon4054" />
  <polygon
     points="452.23 582.65 609.9 427.38 618.7 440.18 468.23 597.05 452.23 582.65"
     fill="#6c63ff"
     id="polygon4056" />
  <path
     d="M724.73,587.36a87.78,87.78,0,0,0-14.56,5.17l-9.56-26.71a115.57,115.57,0,0,1,15.46-5.47Z"
     transform="translate(-71.15 -57.51)"
     opacity="0.1"
     id="path4058" />
  <polygon
     points="680.33 608.26 669.13 614.66 590.99 396.33 587.49 386.56 605.9 376.15 610.51 390.53 680.33 608.26"
     fill="#6c63ff"
     id="polygon4060" />
  <polygon
     points="610.51 390.53 590.99 396.33 587.49 386.56 605.9 376.15 610.51 390.53"
     opacity="0.1"
     id="polygon4062" />
  <path
     d="M562.59,464.88l109.65-37.62s19.21,2.4,12,18.41L573.8,478.48S557,480.08,562.59,464.88Z"
     transform="translate(-71.15 -57.51)"
     fill="#535461"
     id="path4064" />
  <path
     d="M436.07,647.46a117.22,117.22,0,0,0-23.71-48.58,118.77,118.77,0,0,0-14.17-14.56,117.65,117.65,0,1,0,39.33,107.37,119.14,119.14,0,0,0,1.42-18.32A117.57,117.57,0,0,0,436.07,647.46ZM320.88,761.81A88.75,88.75,0,1,1,408.28,689,88.84,88.84,0,0,1,320.88,761.81Z"
     transform="translate(-71.15 -57.51)"
     fill="#535461"
     id="path4066" />
  <path
     d="M438.94,673.37a119.14,119.14,0,0,1-1.42,18.32C427.92,691,418,690,408.28,689a89.59,89.59,0,0,0-.79-35.88c9.47-2,19.14-3.91,28.58-5.64A117.57,117.57,0,0,1,438.94,673.37Z"
     transform="translate(-71.15 -57.51)"
     opacity="0.1"
     id="path4068" />
  <path
     d="M464.15,642.89v21.27H443.34v-18C450.54,644.91,457.54,643.8,464.15,642.89Z"
     transform="translate(-71.15 -57.51)"
     opacity="0.1"
     id="path4070" />
  <path
     d="M329.69,673s168.08-44,181.68-27.21S539.38,685,497,693s-170.48-13.61-170.48-13.61Z"
     transform="translate(-71.15 -57.51)"
     fill="#6c63ff"
     id="path4072" />
  <path
     d="M412.36,598.88,391,618.43a89,89,0,0,0-12.76-13.28l19.94-20.83A118.77,118.77,0,0,1,412.36,598.88Z"
     transform="translate(-71.15 -57.51)"
     opacity="0.1"
     id="path4074" />
  <polygon
     points="252.94 606.66 378.59 475.4 382.6 505.81 259.34 618.66 252.94 606.66"
     fill="#6c63ff"
     id="polygon4076" />
  <circle
     cx="251.34"
     cy="615.46"
     r="12.81"
     opacity="0.1"
     id="circle4078" />
  <circle
     cx="249.73"
     cy="615.46"
     r="12.81"
     fill="#535461"
     id="circle4080" />
  <circle
     cx="675.13"
     cy="614.26"
     r="12.81"
     opacity="0.1"
     id="circle4082" />
  <circle
     cx="675.93"
     cy="615.86"
     r="12.81"
     fill="#535461"
     id="circle4084" />
  <circle
     cx="448.22"
     cy="602.66"
     r="25.61"
     opacity="0.1"
     id="circle4086" />
  <circle
     cx="449.83"
     cy="602.66"
     r="25.61"
     fill="#535461"
     id="circle4088" />
  <rect
     x="521.55"
     y="653.57"
     width="13.61"
     height="47.54"
     rx="6.8"
     ry="6.8"
     transform="translate(-371.55 393.76) rotate(-36.79)"
     fill="#6c63ff"
     id="rect4090" />
  <path
     d="M636.63,304.5l-2.38,30.11a67.62,67.62,0,0,0,.15,11.45c.31,3.37,0,9.27-3.3,18.27a104.89,104.89,0,0,0-6.47,35.9V434.5l-23-4s1-48-3-56,3-79,3-79Z"
     transform="translate(-71.15 -57.51)"
     fill="#db8b8b"
     id="path4092" />
  <path
     d="M635.45,319.42l-1.2,15.19a67.54,67.54,0,0,0,.16,11.44c.31,3.37,0,9.27-3.3,18.28a104.89,104.89,0,0,0-6.47,35.9V434.5l-23-4s1-48-3-56c-2.83-5.67-.15-42.94,1.66-64.21.75-8.75,1.34-14.79,1.34-14.79l35,9Z"
     transform="translate(-71.15 -57.51)"
     opacity="0.05"
     id="path4094" />
  <path
     d="M522.65,534.5,514,583.7A112.21,112.21,0,0,1,509,603c-5.07,13.86-1.83,33.29.63,43.89,1.09,4.68,2,7.64,2,7.64l-26,14-8-6,0-4-1-89c-6-14-4-35,0-43a33.9,33.9,0,0,0,2.38-8.22c2-10.72,2.62-25.78,2.62-25.78s16-27,35-9c7,6.63,9.66,15.3,10.22,23.6C527.83,521.34,522.65,534.5,522.65,534.5Z"
     transform="translate(-71.15 -57.51)"
     fill="#db8b8b"
     id="path4096" />
  <path
     d="M526.85,507.1c-13.87,8.24-38,10.57-47.84,11.18,2-10.72,2.62-25.78,2.62-25.78s16-27,35-9C523.63,490.13,526.29,498.8,526.85,507.1Z"
     transform="translate(-71.15 -57.51)"
     opacity="0.1"
     id="path4098" />
  <path
     d="M560.63,482.5a183,183,0,0,0-30,20c-16,13-56,14-56,14v-15c1-18-16-38-39-94-14.69-35.76-10.62-56-5.76-66,2.76-5.65,5.76-8,5.76-8l125,24,4.47,13.4,9.53,28.6s-35,2-41,5-2,30-2,30C525.63,462.5,560.63,482.5,560.63,482.5Z"
     transform="translate(-71.15 -57.51)"
     fill="#abb1d1"
     id="path4100" />
  <path
     d="M636.63,304.5l-1.18,14.92c-17.4,5-29.82-10.92-29.82-10.92a45.81,45.81,0,0,0-5.34,1.79c.75-8.75,1.34-14.79,1.34-14.79Z"
     transform="translate(-71.15 -57.51)"
     opacity="0.1"
     id="path4102" />
  <path
     d="M565.1,370.9c-.47,4.67-.47,7.6-.47,7.6s-23,19-62-10-74-21-74-21,.41-2.32,1.24-6c2.76-5.65,5.76-8,5.76-8l125,24Z"
     transform="translate(-71.15 -57.51)"
     opacity="0.1"
     id="path4104" />
  <path
     d="M650.11,265.45c-2.61,20.35-3.48,46-3.48,46-23,18-41-5-41-5-21.72,5.83-31.93,24.84-36.74,41.43a110.76,110.76,0,0,0-4.26,27.57s-6.08,5-17.28,6c-10.59.89-25.77-1.87-44.72-16-39-29-74-21-74-21s7-40,23-52,28-27,48-73,61-35,61-35,2-9,39,0A60.27,60.27,0,0,1,624,197.36C643.79,214,653.39,239.81,650.11,265.45Z"
     transform="translate(-71.15 -57.51)"
     fill="#fff"
     id="path4106"
     style="fill:#cccccc" />
  <path
     d="M613,207c-.05,1.33-.16,2.81-.34,4.46-2,18-4,16-26,20-13.68,2.49-20.79-8.94-24.21-17.94a56.63,56.63,0,0,1-2.79-10.06l48-8S613.41,193.85,613,207Z"
     transform="translate(-71.15 -57.51)"
     fill="#db8b8b"
     id="path4108" />
  <path
     d="M568.89,347.93a110.76,110.76,0,0,0-4.26,27.57s-6.08,5-17.28,6a9.32,9.32,0,0,1-.72-2c-2-9-17-25-17-25-10-9-12-25-12-25L501.13,281l-5.5-4.5s23-18,43-3,14,47,14,47l4,11C560.78,335,565,341.17,568.89,347.93Z"
     transform="translate(-71.15 -57.51)"
     opacity="0.05"
     id="path4110" />
  <path
     d="M498.63,275.5l22,53s2,16,12,25c0,0,15,16,17,25s30,33,30,33,26,24,28,33c0,0,24,7,21,21,0,0,18-18,0-35s-42-52-42-52-14-37-27-48l-4-11s6-32-14-47S498.63,275.5,498.63,275.5Z"
     transform="translate(-71.15 -57.51)"
     fill="#db8b8b"
     id="path4112" />
  <path
     d="M511.63,654.5l-26,14-8-6,0-4a60.56,60.56,0,0,0,25.55-7.71c2.4-1.36,4.66-2.7,6.47-3.88C510.7,651.54,511.63,654.5,511.63,654.5Z"
     transform="translate(-71.15 -57.51)"
     opacity="0.1"
     id="path4114" />
  <path
     d="M541.63,233.5l14,55s-43,7-52,0-26-9-26-9,18-52,28-58S541.63,233.5,541.63,233.5Z"
     transform="translate(-71.15 -57.51)"
     opacity="0.1"
     id="path4116" />
  <path
     d="M541.63,231.5l14,55s-43,7-52,0-26-9-26-9,18-52,28-58S541.63,231.5,541.63,231.5Z"
     transform="translate(-71.15 -57.51)"
     fill="#fff"
     id="path4118"
     style="fill:#cccccc" />
  <path
     d="M613,206a35,35,0,0,1-50.55,6.52,56.63,56.63,0,0,1-2.79-10.06l48-8S613.41,192.85,613,206Z"
     transform="translate(-71.15 -57.51)"
     opacity="0.1"
     id="path4120" />
  <path
     d="M619.63,184.5a35,35,0,0,1-70,0c0-.58,0-1.16,0-1.74a35,35,0,0,1,70,1.74Z"
     transform="translate(-71.15 -57.51)"
     fill="#db8b8b"
     id="path4122" />
  <path
     d="M619.63,184.5a34.89,34.89,0,0,1-1.32,9.54,13.47,13.47,0,0,1-8.08-.74c-3.74-1.47-6.95-4-10.54-5.82-10.11-5.12-22.14-4.11-33.34-2.42-5.56.84-11.87,1.62-16.24-1.92a5.11,5.11,0,0,1-.43-.38,35,35,0,0,1,70,1.74Z"
     transform="translate(-71.15 -57.51)"
     opacity="0.1"
     id="path4124" />
  <path
     d="M524.31,162.85c2.13,6.68,12.36,6.89,17.61,11.81,2.73,2.56,4,6.34,7,8.62,4.17,3.18,10.19,2.48,15.5,1.72,10.69-1.52,22.17-2.43,31.81,2.18,3.42,1.63,6.49,3.91,10.06,5.24s8,1.49,10.9-.87c2.32-1.89,3.17-5,5.27-7.08,1.63-1.64,3.9-2.56,5.76-4,4.08-3.08,5.84-8.1,7-12.9,2.4-9.88,3.09-20.53-1-29.9s-13.93-17-24.67-16.51c-3.29.15-6.5,1-9.78,1.36-8.55.87-17-2-25.58-2.49a14.57,14.57,0,0,0-7.33,1,13.38,13.38,0,0,0-4.41,3.95,42.13,42.13,0,0,0-7.86,17.48c-1,4.79-1.05,9.13-6.92,9.87C541,153.21,519.8,148.72,524.31,162.85Z"
     id="path4126"
     transform="translate(-71.15 -57.51)"
     fill="#472727" />
  <path
     d="M456.13,292s26,7,34,25,29.64,21.29,29.64,21.29"
     transform="translate(-71.15 -57.51)"
     opacity="0.05"
     id="path4128" />
  <rect
     x="422.98"
     y="630.49"
     width="60"
     height="19"
     fill="#6c63ff"
     id="rect4130" />
  <rect
     x="422.98"
     y="630.49"
     width="60"
     height="19"
     opacity="0.1"
     id="rect4132" />
  <path
     d="M503.14,652.74c5.37-3,10.08-6,10.49-7.24,0,0,13.55,14.3,25.62,18.74A60.39,60.39,0,0,1,550.84,670c4.78,3,11.6,6.53,17.79,6.53,0,0,14,12-13,14s-90-5-90-5l4-25h0A60.77,60.77,0,0,0,503.14,652.74Z"
     transform="translate(-71.15 -57.51)"
     fill="#abb1d1"
     id="path4134" />
</svg>
